HIERARCHY
ROOT Hips
{
  OFFSET 13.6774 106.653 -34.4427
  CHANNELS 6 Xposition Yposition Zposition Zrotation Xrotation Yrotation
  JOINT ToSpine
  {
    OFFSET -2.69724 7.43032 -0.144315
    CHANNELS 3 Zrotation Xrotation Yrotation
    JOINT Spine
    {
      OFFSET -0.0310711 10.7595 1.96963
      CHANNELS 3 Zrotation Xrotation Yrotation
      JOINT Spine1
      {
        OFFSET 19.9056 3.91189 0.764692
        CHANNELS 3 Zrotation Xrotation Yrotation
        JOINT Neck
        {
          OFFSET 25.9749 7.03908 -0.130764
          CHANNELS 3 Zrotation Xrotation Yrotation
          JOINT Head
          {
            OFFSET 9.52751 0.295786 -0.907742
            CHANNELS 3 Zrotation Xrotation Yrotation
            End Site
            {
              OFFSET 16.4037 0.713936 2.7358
            }
          }
        }
        JOINT LeftShoulder
        {
          OFFSET 17.7449 4.33886 11.7777
          CHANNELS 3 Zrotation Xrotation Yrotation
          JOINT LeftArm
          {
            OFFSET 0.911315 1.27913 9.80584
            CHANNELS 3 Zrotation Xrotation Yrotation
            JOINT LeftForeArm
            {
              OFFSET 28.6126 1.18197 -3.53199
              CHANNELS 3 Zrotation Xrotation Yrotation
              JOINT LeftHand
              {
                OFFSET 27.5088 0.0218783 0.327423
                CHANNELS 3 Zrotation Xrotation Yrotation
                End Site
                {
                  OFFSET 18.6038 -0.000155887 0.382096
                }
              }
            }
          }
        }
        JOINT RightShoulder
        {
          OFFSET 17.1009 2.89543 -12.2328
          CHANNELS 3 Zrotation Xrotation Yrotation
          JOINT RightArm
          {
            OFFSET 1.4228 0.178766 -10.211
            CHANNELS 3 Zrotation Xrotation Yrotation
            JOINT RightForeArm
            {
              OFFSET 28.733 1.87905 2.64907
              CHANNELS 3 Zrotation Xrotation Yrotation
              JOINT RightHand
              {
                OFFSET 27.4588 0.290562 -0.101845
                CHANNELS 3 Zrotation Xrotation Yrotation
                End Site
                {
                  OFFSET 17.8396 -0.255518 -0.000602873
                }
              }
            }
          }
        }
      }
    }
  }
  JOINT LeftUpLeg
  {
    OFFSET -5.61296 -2.22332 -10.2353
    CHANNELS 3 Zrotation Xrotation Yrotation
    JOINT LeftLeg
    {
      OFFSET 2.56703 -44.7417 -7.93097
      CHANNELS 3 Zrotation Xrotation Yrotation
      JOINT LeftFoot
      {
        OFFSET 3.16933 -46.5642 -3.96578
        CHANNELS 3 Zrotation Xrotation Yrotation
        JOINT LeftToeBase
        {
          OFFSET 0.346054 -6.02161 12.8035
          CHANNELS 3 Zrotation Xrotation Yrotation
          End Site
          {
            OFFSET 0.134235 -1.35082 5.13018
          }
        }
      }
    }
  }
  JOINT RightUpLeg
  {
    OFFSET -5.7928 -1.72406 10.6446
    CHANNELS 3 Zrotation Xrotation Yrotation
    JOINT RightLeg
    {
      OFFSET -2.57161 -44.7178 -7.85259
      CHANNELS 3 Zrotation Xrotation Yrotation
      JOINT RightFoot
      {
        OFFSET -3.10148 -46.5936 -4.03391
        CHANNELS 3 Zrotation Xrotation Yrotation
        JOINT RightToeBase
        {
          OFFSET -0.0828122 -6.13587 12.8035
          CHANNELS 3 Zrotation Xrotation Yrotation
          End Site
          {
            OFFSET -0.131328 -1.35082 5.13018
          }
        }
      }
    }
  }
}
MOTION
Frames: 14
Frame Time: 0.03333333333333333
0.0000 93.1000 0.0000 68.7217 74.1667 7.3969 -70.7159 -0.3102 88.5224 134.6304 69.2750 -38.7998 5.8458 25.3314 -3.0713 -143.1677 30.0960 167.5854 -164.5450 71.3405 -175.0462 1.2028 1.6558 -27.2347 -72.3882 31.3065 -97.5269 9.5929 15.6844 -28.7891 11.7869 -1.5771 -0.9439 -0.1915 1.2145 20.8883 -79.4121 -37.3628 102.7575 3.6236 -15.4628 17.5190 7.2882 0.7765 0.8686 -36.9235 3.9780 77.7092 -2.9520 43.8159 -5.9697 -2.6375 4.9791 0.3996 -6.5512 -7.7540 24.0146 -36.1852 1.6592 96.6053 38.9610 82.0112 -14.2204 -9.3156 -11.8395 0.5536 6.7025 -1.8681 -16.3778 
0.0000 93.1000 0.0000 65.4673 61.7480 6.4103 -70.8053 1.1955 88.6634 142.7028 70.9071 -46.3157 7.3746 28.5121 -3.0742 -143.2193 34.1824 162.9508 -177.5644 75.3953 -158.5882 3.5265 1.2688 -27.2509 -67.5016 35.4809 -96.3626 6.5587 11.0462 -22.1202 11.3024 0.6953 -3.4346 -0.2365 2.6577 19.1097 -67.4074 -32.4203 119.6204 5.9197 -10.1258 21.4164 7.9055 -3.3545 -0.9437 -39.4572 11.1020 76.5170 -2.6472 38.2719 -10.3467 -2.1331 3.2487 -0.9616 -5.0328 -1.3373 23.2379 -32.6267 0.2416 98.4246 44.2216 83.2572 -15.2981 -9.1184 -15.1452 2.4869 5.4607 -2.5181 -17.0822 
0.0000 93.1000 0.0000 64.5633 48.5010 5.5991 -70.7340 0.4801 88.5948 149.6458 70.8595 -52.9852 7.7129 30.3670 -4.3403 -145.0578 36.3786 160.1516 165.1496 77.1489 -140.2787 2.3925 0.5192 -26.6203 -85.8551 40.1217 -82.5721 2.1426 17.4767 -15.9064 12.6517 -0.7945 -1.1873 -0.5091 4.0655 17.2717 -64.1235 -28.3451 131.5309 7.5962 -10.6556 25.1853 7.7780 -0.6141 0.8511 -44.1573 13.9289 73.3729 -3.3982 33.9294 -11.0207 -2.4369 2.9939 -0.0770 -6.3699 0.6857 22.3377 -24.7196 -3.2754 96.6115 63.0730 84.2775 -32.3736 -10.4586 -14.8112 0.8968 7.0085 -7.8867 -19.1259 
0.0000 93.1000 0.0000 64.6107 38.1094 6.4086 -70.6409 0.0197 88.5796 155.6526 68.4364 -57.4217 6.8917 30.9124 -4.6098 -145.0738 37.8751 154.9939 163.2230 78.1513 -136.0680 2.3998 -0.1616 -25.1366 -108.4070 42.6406 -64.5383 -1.0236 23.4491 -8.3831 12.2506 -0.2920 0.9316 -0.5227 4.7939 15.7549 -65.9534 -27.8197 142.7567 9.8020 -13.7485 29.3323 7.8264 -0.9247 1.7984 -43.4743 16.2508 69.2398 -3.5095 39.9860 -11.8845 -3.0607 -1.4824 -0.6579 -6.9199 -18.2810 27.7439 -17.2546 -8.2203 90.3970 93.2290 84.1171 -67.5555 -9.4994 -14.7276 1.0474 7.6389 -14.5028 -15.6576 
0.0000 93.1000 0.0000 64.6993 33.4368 6.0127 -70.4945 0.2450 88.4537 156.4586 64.5957 -62.5565 5.5122 30.3430 -2.6917 -144.8261 38.0847 152.0168 160.8831 78.8214 -135.3119 2.8875 -1.3999 -23.9416 -114.9593 47.2216 -63.8597 -3.7425 24.4942 1.8572 12.8146 0.4472 1.7800 -0.3004 5.6686 14.8681 -66.2756 -33.8800 151.6120 12.5910 -14.5650 36.7809 8.0470 -1.3548 3.0181 -39.2037 17.1980 75.2861 -5.0917 49.9448 -12.6227 -0.4184 -4.7608 -1.3375 -6.7832 -29.5226 23.6489 -10.5594 -15.1996 85.7014 120.4905 84.1684 -100.8355 -8.7248 -13.3322 1.6847 8.8413 -19.3907 -14.6161 
0.0000 93.1000 0.0000 63.5187 32.3991 4.2759 -70.5490 0.5893 88.4713 155.4541 60.2079 -66.6755 4.3580 28.4857 -0.2147 -147.9989 37.9463 148.0981 158.3909 79.3514 -135.1581 2.7705 -3.4083 -23.6396 -116.5072 50.7131 -72.7199 -4.8518 29.0629 8.0320 10.6592 0.7575 1.2347 -0.6514 5.9040 14.8315 -65.0637 -37.9604 156.8018 12.7244 -12.0143 44.3058 9.0526 -1.6360 3.1949 -33.1152 17.0109 83.0121 -6.4320 56.1789 -13.5881 4.2105 -3.9766 -1.7793 -7.6947 -35.8903 20.0233 -5.3958 -21.4410 83.6932 125.2119 83.9856 -112.6442 -8.6287 -11.0278 1.8729 9.5686 -19.4111 -16.9402 
0.0000 93.1000 0.0000 59.7131 31.9568 7.0162 -70.5046 0.5673 88.4571 153.4574 57.6554 -64.9866 3.2689 26.5641 0.1647 -148.8436 37.6594 146.2393 161.7767 79.1784 -136.6298 1.9413 -5.7646 -24.0207 -115.8941 51.4960 -84.7275 -5.0538 35.7724 9.2856 9.9395 0.1866 0.6167 -1.0001 5.4786 15.8767 -62.0481 -36.8898 162.2362 14.0419 -11.4110 48.7137 8.8523 -0.7654 4.4929 -25.0613 14.2640 80.7964 -8.4341 62.9599 -12.3265 4.9860 -2.5708 -1.1721 -8.9096 -39.8212 17.9967 -0.4186 -25.1311 78.8035 120.5285 84.9146 -114.0714 -7.9472 -9.8438 1.2725 10.0401 -18.9789 -17.9318 
0.0000 93.1000 0.0000 55.5525 31.4075 8.8634 -70.4218 0.2418 88.3171 153.3646 55.9956 -65.7949 3.3698 25.2395 0.6140 -149.8607 37.6616 144.2699 163.9200 78.9539 -139.7162 1.3631 -8.4234 -25.0592 -112.7755 50.3520 -98.8775 -3.7125 37.8034 9.2567 10.4944 -0.2809 0.1413 -1.4399 5.4952 16.9207 -59.3954 -37.3510 163.5064 19.2938 -13.5494 52.5987 9.2468 -0.6546 4.2767 -18.1253 11.0687 80.3450 -10.0086 66.9020 -9.7493 5.3480 -2.5058 -1.2559 -8.9077 -41.8427 18.9680 4.7669 -26.9232 76.9350 126.8300 83.7534 -121.4034 -6.7391 -9.8402 1.1062 8.9032 -16.0993 -18.6135 
0.0000 93.1000 0.0000 53.8247 31.6133 6.5400 -70.3678 0.7245 88.2735 152.3902 55.1448 -66.4879 5.7839 24.6498 0.0090 -151.9376 37.6709 145.6741 166.5632 78.8068 -141.1507 1.1488 -10.6369 -24.8850 -112.0928 48.7170 -113.9970 -1.6547 37.6964 9.1084 12.4976 -0.0434 0.4659 -0.8560 5.1924 18.9247 -57.0184 -35.2184 165.2273 19.5065 -15.8301 48.5525 9.2575 -0.7552 2.8329 -15.7133 9.1088 83.4346 -9.9702 67.8600 -8.8580 5.8148 -1.8695 -1.5614 -8.9212 -41.9125 18.1770 8.1734 -26.7119 76.9073 134.9171 83.9769 -129.2151 -6.6085 -7.7822 1.2654 9.6101 -20.2237 -18.2874 
0.0000 93.1000 0.0000 53.4918 29.5351 4.8882 -70.5146 0.3177 88.2784 152.2854 54.0954 -68.5874 8.2508 24.3794 -1.0680 -150.8700 36.7269 144.4275 173.7576 78.0308 -144.4124 0.4980 -12.2095 -22.0028 -111.9120 50.4371 -125.7957 0.0169 37.7907 9.0535 14.7700 -0.6119 1.0249 -1.2325 4.6271 21.0211 -55.1833 -33.4696 166.2066 13.8538 -14.2404 40.6468 8.7073 -0.3829 -0.8689 -14.7838 9.4985 85.5693 -11.0758 69.8365 -7.5659 5.8127 -1.5026 -1.5040 -8.7017 -42.8358 16.3490 7.9308 -25.9969 76.1317 147.4324 82.2624 -143.7508 -6.6813 -7.8826 1.0901 11.4703 -22.5861 -17.8360 
0.0000 93.1000 0.0000 52.8866 29.5777 4.8819 -70.5376 0.2351 88.5265 151.3320 53.0167 -68.7982 9.8700 23.4361 -2.0476 -152.8774 36.5590 146.1952 170.4989 77.7906 -141.9896 -0.0991 -12.3962 -19.0889 -103.0277 52.6043 -143.7086 -0.9919 36.7143 9.1180 16.1724 -0.4906 0.9593 -1.4377 4.3173 22.9039 -53.9289 -34.4632 165.3805 10.6448 -11.6471 36.4717 10.9082 -1.2884 -6.4630 -13.0639 9.2696 86.4086 -12.7597 70.8994 -6.7249 6.9560 -1.5433 -1.8102 -8.8251 -42.8595 16.5962 8.6358 -26.7750 75.1438 155.2437 79.0807 -152.8982 -6.5877 -7.7836 1.0281 12.1875 -27.0524 -19.2012 
0.0000 93.1000 0.0000 51.7801 30.5870 3.9428 -70.3283 0.1588 88.5465 150.2621 51.9298 -68.6671 10.7464 22.4153 -1.6370 -152.9150 36.5697 145.5938 174.6109 77.1250 -141.7584 -0.3884 -12.6652 -18.9021 -92.9248 50.6446 -159.8745 -3.9834 35.5105 9.1701 14.0049 -0.8451 0.0014 -1.2291 3.8655 23.9060 -51.9902 -35.2631 163.2584 7.9667 -8.1231 34.6405 14.8666 -1.6550 -9.8423 -12.9539 8.4301 87.2937 -13.2376 70.7357 -6.4924 6.9512 -1.4774 -1.2210 -10.1575 -42.6371 14.9793 9.1609 -27.9440 75.2714 159.3107 76.0431 -156.0097 -7.0745 -7.7150 0.7902 12.4509 -29.1779 -17.4013 
0.0000 93.1000 0.0000 50.7447 30.7845 4.1489 -70.2737 0.2262 88.4890 149.2311 51.2032 -67.7297 10.0399 21.3922 -1.4185 -152.7626 35.5267 145.5112 175.5982 76.6417 -142.4619 -0.3203 -13.5175 -21.0107 -84.9469 47.3892 -168.7257 -3.0661 36.9944 0.1716 9.8147 -0.8040 -1.4021 -0.6739 3.1038 26.7648 -50.2588 -37.3343 158.3343 7.7257 -7.8042 36.6784 14.5132 -1.8183 -11.5034 -13.0175 9.4841 89.5201 -13.6153 71.7783 -7.3150 6.9327 -2.3434 -1.3883 -9.1452 -42.8078 14.3065 8.9517 -28.7814 75.3957 161.3793 74.0295 -158.2550 -7.0923 -6.9551 0.6019 12.5344 -29.8856 -16.9237 
0.0000 93.1000 0.0000 50.8798 30.8900 3.2573 -70.2665 0.0763 88.2764 146.3146 50.9223 -65.7504 9.9347 20.6245 -1.3469 -153.7262 35.5482 147.5254 177.5210 76.4008 -144.3546 -0.2109 -14.3112 -19.1625 -76.1154 37.4217 -175.9517 5.8997 28.7331 -18.1855 8.0490 -0.7380 -2.7562 -0.9159 3.1788 26.9880 -47.0529 -40.2002 157.2017 7.0682 -6.8460 38.5673 14.2935 -2.5014 -12.4055 -13.9493 8.5693 92.3907 -12.5384 70.5367 -8.9215 7.0826 -3.2995 -1.2148 -8.9953 -40.9494 14.0879 8.8651 -29.8598 76.0887 161.6228 74.0640 -158.3230 -6.8730 -7.1187 0.9912 11.9095 -30.8765 -16.4092 
